<svg display="none" xmlns="http://www.w3.org/2000/svg">
  <symbol id="logo" viewBox="0 0 66 66">
  <path fill-rule="evenodd" clip-rule="evenodd" d="M10.1262 10.1191L33 0.644445L55.8738 10.1191L65.3514 33L55.8738 55.8809L33 65.3556L10.1262 55.8809L0.648582 33L10.1262 10.1191ZM33 0L56.3345 9.66548L66 33L56.3345 56.3345L33 66L9.66548 56.3345L0 33L9.66548 9.66548L33 0ZM28.5672 26.4166C27.948 26.2882 27.1848 26.224 26.2776 26.224C24.7944 26.224 23.4552 26.5094 22.26 27.0802C21.0792 27.651 20.1504 28.4573 19.4736 29.499C18.7968 30.5265 18.4584 31.7109 18.4584 33.0523C18.4584 34.4365 18.7896 35.6638 19.452 36.7341C20.1144 37.8043 21.036 38.6391 22.2168 39.2385C23.412 39.8236 24.7656 40.1161 26.2776 40.1161C27.1272 40.1161 27.876 40.0448 28.524 39.9021C29.1864 39.7593 29.892 39.5096 30.6408 39.1529C30.7272 39.0958 30.7848 39.0458 30.8136 39.003C30.8424 38.9602 30.864 38.8532 30.8784 38.6819L31.0944 36.3274C31.0944 36.2845 31.044 36.2631 30.9432 36.2631C30.8712 36.2631 30.8352 36.2774 30.8352 36.3059C30.4464 37.4761 29.8848 38.3466 29.1504 38.9174C28.416 39.4882 27.4584 39.7736 26.2776 39.7736C25.1688 39.7736 24.1392 39.4739 23.1888 38.8746C22.2528 38.2752 21.504 37.4618 20.9424 36.4344C20.3952 35.3926 20.1216 34.251 20.1216 33.0095C20.1216 31.7109 20.3736 30.5764 20.8776 29.6061C21.3816 28.6214 22.0944 27.8651 23.016 27.3371C23.9376 26.8091 25.0032 26.5451 26.2128 26.5451C28.5168 26.5451 30 27.7366 30.6624 30.1198C30.6768 30.1626 30.72 30.184 30.792 30.184C30.8784 30.1697 30.9216 30.1412 30.9216 30.0984L30.6624 27.5511C30.6336 27.3799 30.612 27.2729 30.5976 27.2301C30.5832 27.1872 30.5256 27.1373 30.4248 27.0802C29.8056 26.7663 29.1864 26.5451 28.5672 26.4166ZM47.8678 39.7094C47.8678 39.6238 47.8462 39.581 47.803 39.581C47.2558 39.581 46.8526 39.5453 46.5934 39.4739C46.3342 39.4026 46.1542 39.267 46.0534 39.0672C45.967 38.8532 45.9238 38.5321 45.9238 38.104V28.1933C45.9238 27.7652 45.967 27.4512 46.0534 27.2515C46.1542 27.0517 46.3342 26.9161 46.5934 26.8448C46.8526 26.7591 47.2558 26.7163 47.803 26.7163C47.8462 26.7163 47.8678 26.6735 47.8678 26.5879C47.8678 26.5023 47.8462 26.4595 47.803 26.4595L46.7446 26.4809C46.1398 26.5094 45.643 26.5237 45.2542 26.5237C44.8222 26.5237 44.2894 26.5094 43.6558 26.4809L42.6406 26.4595C42.5974 26.4595 42.5758 26.5023 42.5758 26.5879C42.5758 26.6735 42.5974 26.7163 42.6406 26.7163C43.2022 26.7163 43.6126 26.7591 43.8718 26.8448C44.131 26.9304 44.3038 27.0802 44.3902 27.2943C44.491 27.4941 44.5414 27.808 44.5414 28.2361V32.6456H36.247V28.2361C36.247 27.808 36.2902 27.4941 36.3766 27.2943C36.4774 27.0802 36.6574 26.9304 36.9166 26.8448C37.1902 26.7591 37.6006 26.7163 38.1478 26.7163C38.1766 26.7163 38.191 26.6735 38.191 26.5879C38.191 26.5023 38.1766 26.4595 38.1478 26.4595L37.111 26.4809C36.4774 26.5094 35.9518 26.5237 35.5342 26.5237C35.1742 26.5237 34.6918 26.5094 34.087 26.4809L32.9854 26.4595C32.9566 26.4595 32.9422 26.5023 32.9422 26.5879C32.9422 26.6735 32.9566 26.7163 32.9854 26.7163C33.5326 26.7163 33.9358 26.7591 34.195 26.8448C34.4542 26.9161 34.627 27.0517 34.7134 27.2515C34.8142 27.4512 34.8646 27.7652 34.8646 28.1933V38.104C34.8646 38.5321 34.8142 38.8532 34.7134 39.0672C34.627 39.267 34.447 39.4026 34.1734 39.4739C33.9142 39.5453 33.511 39.581 32.9638 39.581C32.935 39.581 32.9206 39.6238 32.9206 39.7094C32.9206 39.795 32.935 39.8378 32.9638 39.8378C33.4246 39.8378 33.7846 39.8307 34.0438 39.8164L35.5342 39.795L37.0894 39.8164C37.3486 39.8307 37.7014 39.8378 38.1478 39.8378C38.1766 39.8378 38.191 39.795 38.191 39.7094C38.191 39.6238 38.1766 39.581 38.1478 39.581C37.5862 39.581 37.1758 39.5453 36.9166 39.4739C36.6574 39.4026 36.4774 39.267 36.3766 39.0672C36.2902 38.8532 36.247 38.5321 36.247 38.104V33.0951H44.5414V38.104C44.5414 38.5321 44.491 38.8532 44.3902 39.0672C44.3038 39.267 44.131 39.4026 43.8718 39.4739C43.6126 39.5453 43.2022 39.581 42.6406 39.581C42.5974 39.581 42.5758 39.6238 42.5758 39.7094C42.5758 39.795 42.5974 39.8378 42.6406 39.8378C43.0726 39.8378 43.411 39.8307 43.6558 39.8164L45.2542 39.795L46.7446 39.8164C47.0038 39.8307 47.3566 39.8378 47.803 39.8378C47.8462 39.8378 47.8678 39.795 47.8678 39.7094Z"/>
  </symbol>

  <symbol id="search" viewBox="0 0 14 14">
    <path d="M11.0482 10.0737L14 13.0248L13.0248 14L10.0737 11.0482C8.9757 11.9285 7.60993 12.4072 6.20262 12.4052C2.77877 12.4052 0 9.62646 0 6.20262C0 2.77877 2.77877 0 6.20262 0C9.62646 0 12.4052 2.77877 12.4052 6.20262C12.4072 7.60993 11.9285 8.9757 11.0482 10.0737ZM9.66575 9.56237C10.5404 8.66291 11.0289 7.45722 11.0269 6.20262C11.0269 3.53687 8.86768 1.37836 6.20262 1.37836C3.53687 1.37836 1.37836 3.53687 1.37836 6.20262C1.37836 8.86768 3.53687 11.0269 6.20262 11.0269C7.45722 11.0289 8.66291 10.5404 9.56237 9.66575L9.66575 9.56237Z" />
  </symbol>

  <symbol id="cart" viewBox="0 0 20 18">
    <path d="M14 5C14 6.06087 13.5786 7.07828 12.8284 7.82843C12.0783 8.57857 11.0609 9 10 9C8.93913 9 7.92172 8.57857 7.17157 7.82843C6.42143 7.07828 6 6.06087 6 5M1 1H19V17H1V1Z"  stroke-width="2" stroke-linecap="round" stroke-linejoin="round"/>
  </symbol>

  <symbol id="vector" viewBox="0 0 30 11">
    <path d="M0 5.5H29M29 5.5L23.5135 1M29 5.5L23.5135 10" stroke="white"/>
  </symbol>

  <symbol id="hr" viewBox="0 0 35 35">
    <path d="M31.2638 27.8931C31.639 27.3746 31.8609 26.7384 31.8609 26.0511V21.9434C31.8609 21.5658 31.5548 21.2598 31.1773 21.2598H28.1222C26.7099 21.2598 25.5609 22.4087 25.5609 23.8211V26.0511C25.5609 26.738 25.7826 27.3738 26.1573 27.8921C25.69 27.9679 25.2404 28.1176 24.8211 28.3367C23.8713 26.9195 22.3152 25.9421 20.5271 25.7772C20.5201 25.7752 20.513 25.7738 20.506 25.7721C21.1457 25.0577 21.5357 24.1151 21.5357 23.0829V17.5C21.5357 17.1225 21.2296 16.8164 20.8521 16.8164H16.6999C14.9157 16.8164 13.4643 18.2679 13.4643 20.052V23.0828C13.4643 24.1151 13.8543 25.0576 14.494 25.772C14.487 25.7737 14.4799 25.7752 14.4729 25.7772C12.6846 25.942 11.1284 26.9196 10.1787 28.337C9.75926 28.1179 9.30959 27.9681 8.84249 27.8923C9.21724 27.374 9.43906 26.7381 9.43906 26.0511V21.9434C9.43906 21.5658 9.13295 21.2598 8.75547 21.2598H5.70035C4.28805 21.2598 3.13906 22.4087 3.13906 23.8211V26.0511C3.13906 26.7385 3.36103 27.3746 3.73618 27.8931C1.62025 28.2389 0 30.0791 0 32.2913V34.3164C0 34.694 0.306113 35 0.683594 35H34.3164C34.6939 35 35 34.694 35 34.3164V32.2913C35 30.0791 33.3797 28.2389 31.2638 27.8931ZM4.50625 23.8211C4.50625 23.1626 5.04191 22.627 5.70035 22.627H8.07188V23.4595C8.07188 23.8677 7.73979 24.1998 7.33161 24.1998H4.50625V23.8211ZM4.50625 25.567H7.33161C7.59206 25.567 7.84144 25.5192 8.07188 25.4324V26.0511C8.07188 27.0341 7.27214 27.8339 6.28906 27.8339C5.30599 27.8339 4.50625 27.0341 4.50625 26.0511V25.567ZM6.72978 29.2011L6.28906 29.6418L5.84835 29.2011H6.72978ZM9.19789 31.564V33.6328H1.36719V32.2913C1.36719 30.758 2.48985 29.4826 3.95616 29.2424L5.80569 31.0919C5.93394 31.2201 6.10777 31.2921 6.28906 31.2921C6.47035 31.2921 6.64419 31.2201 6.77243 31.0919L8.62251 29.2417C8.94927 29.2949 9.26352 29.4003 9.55637 29.5544C9.32477 30.1809 9.19789 30.8579 9.19789 31.564ZM17.5001 25.7515C16.0286 25.7515 14.8315 24.5543 14.8315 23.0829V22.1794H18.917C19.37 22.1794 19.7965 22.0637 20.1686 21.8604V23.0829C20.1686 24.5543 18.9715 25.7515 17.5001 25.7515ZM18.6916 27.1186L17.5 28.3102L16.3084 27.1186H18.6916ZM14.8314 20.052H14.8315C14.8315 19.0217 15.6696 18.1836 16.6999 18.1836H20.1685V19.5606C20.1685 20.2508 19.607 20.8123 18.9169 20.8123H14.8314V20.052ZM24.4349 33.6328H23.1055H11.8945H10.5651V32.2656H15.0163C15.3938 32.2656 15.6999 31.9596 15.6999 31.582C15.6999 31.2045 15.3938 30.8984 15.0163 30.8984H10.6151C10.9081 28.9556 12.4633 27.422 14.4158 27.1595L17.0166 29.7603C17.1501 29.8938 17.3251 29.9605 17.5 29.9605C17.6749 29.9605 17.8499 29.8938 17.9834 29.7603L20.5842 27.1595C22.755 27.4513 24.4349 29.3146 24.4349 31.564V33.6328ZM26.9281 23.8211C26.9281 23.1626 27.4638 22.627 28.1222 22.627H30.4937V23.4595C30.4937 23.8677 30.1617 24.1998 29.7535 24.1998H26.9281V23.8211ZM26.9281 25.567H29.7535C30.0139 25.567 30.2633 25.5192 30.4937 25.4324V26.0511C30.4937 27.0341 29.694 27.8339 28.7109 27.8339C27.7279 27.8339 26.9281 27.0341 26.9281 26.0511V25.567ZM29.1516 29.2011L28.7109 29.6418L28.2702 29.2011H29.1516ZM25.802 33.6328V31.564C25.802 30.8578 25.6752 30.1809 25.4435 29.5542C25.7362 29.4 26.0504 29.2947 26.3772 29.2416L28.2275 31.0919C28.3557 31.2201 28.5296 31.2921 28.7109 31.2921C28.8922 31.2921 29.066 31.2201 29.1942 31.0919L31.0438 29.2424C32.5101 29.4826 33.6327 30.758 33.6327 32.2913V33.6328H25.802Z" />
    <path d="M20.8689 4.4665C20.6019 4.19956 20.1692 4.19956 19.9021 4.4665L16.5477 7.82097L15.0976 6.37086C14.8306 6.10385 14.3979 6.10385 14.1309 6.37079C13.8639 6.63773 13.8639 7.07059 14.1309 7.3376L16.0643 9.27107C16.1926 9.39925 16.3664 9.4713 16.5477 9.4713C16.729 9.4713 16.9028 9.39925 17.0311 9.27107L20.8689 5.43324C21.1359 5.1663 21.1359 4.73345 20.8689 4.4665Z"/>
    <path d="M20.295 0.592814C19.9503 0.439074 19.5461 0.593908 19.3923 0.938712C19.2385 1.28352 19.3934 1.68773 19.7382 1.84147C21.7205 2.72556 23.0015 4.69889 23.0015 6.86875C23.0015 9.90227 20.5335 12.3702 17.5 12.3702C14.4664 12.3702 11.9985 9.90227 11.9985 6.86875C11.9985 4.7101 13.2702 2.74087 15.2382 1.85199C15.5823 1.69661 15.7353 1.29165 15.5798 0.947599C15.4244 0.603478 15.0193 0.450558 14.6755 0.605939C12.2188 1.71555 10.6313 4.17382 10.6313 6.86868C10.6313 10.6561 13.7126 13.7374 17.5 13.7374C21.2873 13.7374 24.3686 10.6561 24.3686 6.86875C24.3686 4.15987 22.7696 1.69641 20.295 0.592814Z"/>
    <path d="M17.5245 0H17.5C17.1225 0 16.8164 0.306045 16.8164 0.683594C16.8164 1.06114 17.1225 1.36719 17.5 1.36719H17.518C17.5191 1.36719 17.5202 1.36719 17.5213 1.36719C17.8974 1.36719 18.2031 1.06326 18.2049 0.686807C18.2066 0.309258 17.902 0.00177734 17.5245 0Z"/>
    <path d="M17.9832 31.0987C17.8562 30.9716 17.6798 30.8984 17.5 30.8984C17.3202 30.8984 17.1438 30.9716 17.0167 31.0987C16.8896 31.2259 16.8164 31.4022 16.8164 31.582C16.8164 31.7618 16.8895 31.9382 17.0167 32.0653C17.1439 32.1925 17.3202 32.2656 17.5 32.2656C17.6798 32.2656 17.8562 32.1925 17.9832 32.0653C18.1104 31.9382 18.1836 31.7618 18.1836 31.582C18.1836 31.4022 18.1104 31.2259 17.9832 31.0987Z"/>
  </symbol>

  <symbol id="hat" viewBox="0 0 36 31">
  <path d="M18 9.75821C17.6119 9.75821 17.2969 10.0752 17.2969 10.4663C17.2969 10.8571 17.6119 11.1743 18 11.1743C18.3881 11.1743 18.7031 10.8571 18.7031 10.4663C18.7031 10.0752 18.3881 9.75821 18 9.75821Z"/>
  <path d="M33.8906 14.0066H31.1548C29.7125 9.85946 27.6199 2.58774 23.8291 0.529671C21.9331 -0.498398 20.141 0.219618 19.4669 1.67833C19.1802 2.29844 18.6075 2.62453 18 2.62453C17.3842 2.62453 16.8162 2.29124 16.5331 1.67888C15.8829 0.269957 14.1336 -0.513887 12.3041 0.380314C8.45261 2.26386 6.29874 9.8282 4.84525 14.0066H2.10938C0.944 14.0066 0 14.9569 0 16.1308C0 17.3018 0.946198 18.2549 2.10938 18.2549H33.8906C35.056 18.2549 36 17.3043 36 16.1308C36 14.9594 35.0538 14.0066 33.8906 14.0066ZM7.31525 11.1743H15.1875C15.5759 11.1743 15.8906 10.8571 15.8906 10.4663C15.8906 10.0752 15.5759 9.75823 15.1875 9.75823H7.80688C9.92642 3.86225 11.9064 2.14908 12.9183 1.65427C14.0221 1.11493 14.9307 1.56631 15.2581 2.27603C15.7739 3.39178 16.8409 4.04065 18 4.04065C19.1618 4.04065 20.2275 3.38929 20.7419 2.27603C21.0789 1.54612 21.9922 1.14203 23.1619 1.77624C24.1784 2.32831 26.1524 4.09845 28.1928 9.75823H20.8125C20.4241 9.75823 20.1094 10.0752 20.1094 10.4663C20.1094 10.8574 20.4241 11.1743 20.8125 11.1743H28.685C29.0404 12.2066 29.4096 13.2717 29.665 14.0066H6.33527C6.58987 13.2736 6.95819 12.211 7.31525 11.1743ZM33.8906 16.8388H2.10938C1.72156 16.8388 1.40625 16.521 1.40625 16.1308C1.40625 15.7397 1.72101 15.4227 2.10938 15.4227H33.8906C34.2784 15.4227 34.5938 15.7402 34.5938 16.1308C34.5938 16.5216 34.2787 16.8388 33.8906 16.8388Z"/>
  <path d="M16.5938 21.0873H5.34375C4.95538 21.0873 4.64062 21.4042 4.64062 21.7953V24.6275C4.64062 28.1413 7.47949 31.0001 10.9688 31.0001C13.6126 31.0001 15.9527 29.3624 16.8835 26.8953C17.5905 26.5706 18.4095 26.5706 19.1165 26.8953C20.0473 29.3624 22.3874 30.9998 25.0312 30.9998C28.5205 30.9998 31.3594 28.1413 31.3594 24.6273V21.795C31.3594 21.4039 31.0446 21.087 30.6562 21.087H19.4062C19.0179 21.087 18.7031 21.4039 18.7031 21.795V22.5031H17.2969V21.795C17.2969 21.4042 16.9821 21.0873 16.5938 21.0873ZM10.9688 29.584C8.25485 29.584 6.04688 27.3605 6.04688 24.6275V22.5034H15.8906V24.6275C15.8906 27.3677 13.6945 29.584 10.9688 29.584ZM20.1094 22.5034H29.9531V24.6275C29.9531 27.3605 27.7451 29.584 25.0312 29.584C22.2987 29.584 20.1094 27.361 20.1094 24.6275V22.5034ZM18.7031 23.9195V24.6275C18.7031 24.8538 18.716 25.0792 18.7394 25.303C18.2508 25.2131 17.7492 25.2131 17.2606 25.303C17.284 25.0792 17.2969 24.8538 17.2969 24.6275V23.9195H18.7031Z"/>
  <path d="M10.9688 26.7516C9.80557 26.7516 8.85938 25.7985 8.85938 24.6274C8.85938 24.2363 8.54462 23.9194 8.15625 23.9194C7.76788 23.9194 7.45312 24.2363 7.45312 24.6274C7.45312 26.5793 9.03021 28.1677 10.9688 28.1677C11.3571 28.1677 11.6719 27.8505 11.6719 27.4597C11.6719 27.0686 11.3571 26.7516 10.9688 26.7516Z"/>
  <path d="M25.0312 28.1677C26.9698 28.1677 28.5469 26.5793 28.5469 24.6274C28.5469 24.2363 28.2321 23.9194 27.8438 23.9194C27.4554 23.9194 27.1406 24.2363 27.1406 24.6274C27.1406 25.7985 26.1944 26.7516 25.0312 26.7516C24.6429 26.7516 24.3281 27.0686 24.3281 27.4597C24.3281 27.8505 24.6429 28.1677 25.0312 28.1677Z"/>
  </symbol>

  <symbol id="tag" viewBox="0 0 35 35">
    <path d="M11.0707 8.58469C10.9436 8.45752 10.7672 8.38437 10.5874 8.38437C10.4076 8.38437 10.2312 8.45752 10.1041 8.58469C9.97702 8.71186 9.90381 8.88825 9.90381 9.06807C9.90381 9.24788 9.97695 9.42427 10.1041 9.55144C10.2312 9.67868 10.4076 9.75176 10.5874 9.75176C10.7672 9.75176 10.9436 9.67861 11.0707 9.55144C11.1978 9.42427 11.271 9.24788 11.271 9.06807C11.271 8.88825 11.1979 8.71186 11.0707 8.58469Z"/>
    <path d="M34.8 2.85866L33.9548 2.01231L34.7998 1.16719C35.0667 0.900207 35.0667 0.46729 34.7998 0.200238C34.5328 -0.0667459 34.1 -0.0667459 33.833 0.200238L32.9885 1.04481L32.1556 0.210835C32.0275 0.0825735 31.8537 0.0103751 31.6724 0.0103067L20.1023 0.00387998C20.1016 0.00387998 20.101 0.00387998 20.1004 0.00387998C19.1868 0.00387998 18.3278 0.359676 17.6818 1.00584L11.9081 6.78034C11.6412 7.04732 11.6412 7.48024 11.9081 7.74729C12.1751 8.01428 12.6079 8.01428 12.8749 7.74729L18.6486 1.97279C19.0364 1.58486 19.5519 1.37134 20.1004 1.37134C20.1008 1.37134 20.1012 1.37134 20.1016 1.37134L31.3884 1.37763L32.0219 2.01183L29.4854 4.54862C28.4099 3.9043 26.9919 4.0448 26.066 4.97066C25.5371 5.49971 25.2459 6.20303 25.2459 6.95113C25.2459 7.69923 25.5371 8.40255 26.066 8.93159C26.612 9.47759 27.3291 9.75059 28.0463 9.75059C28.7634 9.75059 29.4805 9.47759 30.0264 8.93159C30.9508 8.00703 31.0922 6.59164 30.4514 5.51646L32.9881 2.97933L33.6327 3.62481L33.6265 14.8981C33.6261 15.4461 33.4126 15.9614 33.025 16.349L16.3438 33.0327C15.956 33.4205 15.4403 33.6341 14.892 33.6341C14.3436 33.6341 13.8279 33.4205 13.4401 33.0327L1.96861 21.5593C1.58074 21.1715 1.36719 20.6558 1.36719 20.1073C1.36719 19.5588 1.58074 19.0431 1.96861 18.6553L9.33734 11.2854C9.60429 11.0184 9.60429 10.5855 9.33734 10.3185C9.07033 10.0515 8.63762 10.0515 8.37054 10.3185L1.00181 17.6883C0.355811 18.3344 0 19.1935 0 20.1073C0 21.0211 0.355811 21.8802 1.00181 22.5263L12.4733 33.9996C13.1402 34.6665 14.016 35 14.892 35C15.7679 35 16.6437 34.6665 17.3106 33.9996L33.9918 17.3158C34.6373 16.6702 34.993 15.8118 34.9936 14.8987L35 3.34217C35.0001 3.16085 34.9282 2.98692 34.8 2.85866ZM29.0596 7.96457C28.7889 8.23532 28.429 8.38443 28.0463 8.38443C27.6634 8.38443 27.3036 8.23532 27.0329 7.96457C26.474 7.40572 26.474 6.49633 27.0329 5.93748C27.3123 5.65798 27.6792 5.51831 28.0463 5.51831C28.1845 5.51831 28.3227 5.5382 28.4562 5.57786L27.6672 6.36698C27.4003 6.63396 27.4003 7.06688 27.6672 7.33393C27.8007 7.46746 27.9757 7.53419 28.1506 7.53419C28.3255 7.53419 28.5005 7.46746 28.634 7.33393L29.4208 6.547C29.5629 7.03372 29.4427 7.5815 29.0596 7.96457Z"/>
    <path d="M29.2004 13.7645L21.2339 5.79669C20.1785 4.7412 18.4613 4.74134 17.4061 5.79669L4.79918 18.4056C4.28792 18.9168 4.00635 19.5966 4.00635 20.3197C4.00635 21.0428 4.28785 21.7227 4.79911 22.2339L12.7657 30.2016C13.277 30.7129 13.9566 30.9946 14.6796 30.9946C15.4025 30.9946 16.0823 30.713 16.5934 30.2017L29.2004 17.5928C29.7117 17.0815 29.9932 16.4017 29.9932 15.6786C29.9932 14.9556 29.7117 14.2758 29.2004 13.7645ZM28.2336 16.6258L15.6267 29.2349C15.3738 29.4878 15.0374 29.6272 14.6796 29.6272C14.3219 29.6272 13.9855 29.4878 13.7326 29.2348L5.76592 21.267C5.51292 21.014 5.3736 20.6776 5.3736 20.3198C5.37354 19.9619 5.51292 19.6255 5.76592 19.3725L18.3729 6.76365C18.634 6.50247 18.977 6.37189 19.32 6.37189C19.663 6.37189 20.006 6.50254 20.2671 6.76365L28.2336 14.7314C28.4866 14.9844 28.6259 15.3208 28.6259 15.6786C28.6259 16.0364 28.4866 16.3729 28.2336 16.6258Z"/>
    <path d="M22.2904 13.677C22.5574 13.41 22.5574 12.9771 22.2904 12.71C22.0234 12.443 21.5907 12.443 21.3236 12.71L20.93 13.1037C19.879 12.4544 18.5304 12.5415 17.6779 13.394C17.1808 13.8912 16.9265 14.5662 16.9618 15.2949C16.9959 15.9985 17.2989 16.6702 17.8148 17.1862C17.8149 17.1863 17.8149 17.1863 17.8149 17.1864C18.3648 17.7365 18.4261 18.5701 17.9517 19.0446C17.4771 19.5191 16.6435 19.4577 16.0935 18.9077C15.5435 18.3575 15.4821 17.5238 15.9566 17.0492C16.2235 16.7822 16.2235 16.3493 15.9566 16.0823C15.6896 15.8153 15.2569 15.8153 14.9898 16.0823C14.1373 16.9348 14.0503 18.2836 14.6995 19.3349L14.2324 19.8019C13.9655 20.0689 13.9655 20.5018 14.2324 20.7689C14.3663 20.9025 14.5412 20.9693 14.7161 20.9693C14.8911 20.9693 15.066 20.9025 15.1995 20.769L15.6668 20.3016C16.1261 20.5853 16.6419 20.729 17.1486 20.729C17.8013 20.7289 18.4387 20.4915 18.9186 20.0115C19.9259 19.004 19.8647 17.3033 18.7822 16.22C18.782 16.2198 18.7819 16.2196 18.7817 16.2194C18.5065 15.9441 18.3451 15.5923 18.3275 15.2287C18.3112 14.8901 18.4238 14.582 18.6448 14.361C19.1192 13.8864 19.9526 13.9478 20.5027 14.4977C20.5028 14.4978 20.5028 14.4979 20.5028 14.4979C20.5029 14.498 20.503 14.498 20.503 14.498C21.0529 15.0482 21.1142 15.8817 20.6397 16.3563C20.3727 16.6233 20.3727 17.0562 20.6397 17.3232C20.7732 17.4568 20.9481 17.5235 21.1231 17.5235C21.298 17.5235 21.4729 17.4568 21.6064 17.3232C22.4589 16.4706 22.546 15.1218 21.8968 14.0706L22.2904 13.677Z"/>
    <path d="M15.3719 25.0116L11.8609 21.5C11.5939 21.2332 11.1612 21.2331 10.8941 21.5C10.6271 21.767 10.6271 22.1999 10.8941 22.467L14.4051 25.9786C14.5386 26.112 14.7136 26.1788 14.8885 26.1788C15.0634 26.1788 15.2384 26.112 15.3719 25.9786C15.6388 25.7116 15.6388 25.2787 15.3719 25.0116Z"/>
    <path d="M9.98812 19.6269C9.86104 19.4998 9.68528 19.4266 9.50488 19.4266C9.3251 19.4266 9.14941 19.4998 9.02158 19.6269C8.89443 19.7541 8.82129 19.9305 8.82129 20.111C8.82129 20.2908 8.89437 20.4672 9.02158 20.5944C9.14873 20.7215 9.3251 20.7947 9.50488 20.7947C9.68535 20.7947 9.86104 20.7215 9.98812 20.5944C10.1159 20.4665 10.1891 20.2908 10.1891 20.111C10.1891 19.9305 10.1159 19.7548 9.98812 19.6269Z"/>
  </symbol>

  <symbol id="next" viewBox="0 0 6 9">
    <path d="M1 8.5L5 4.5L1 0.5" stroke="white" fill="none" stroke-linejoin="round"/>
  </symbol>

  <symbol id="fb" viewBox="0 0 8 15">
    <path d="M5.33333 8.625H7.2381L8 5.625H5.33333V4.125C5.33333 3.3525 5.33333 2.625 6.85714 2.625H8V0.105C7.75162 0.0727501 6.81371 0 5.82324 0C3.75467 0 2.28571 1.24275 2.28571 3.525V5.625H0V8.625H2.28571V15H5.33333V8.625Z" />
  </symbol>

    <symbol id="twitter" viewBox="0 0 15 13">
    <path d="M14.9993 1.54324C14.4375 1.80812 13.8417 1.98209 13.2317 2.05937C13.8747 1.64947 14.3559 1.00438 14.5857 0.244297C13.9823 0.627078 13.3207 0.895338 12.6312 1.04045C12.1681 0.512227 11.5542 0.161908 10.885 0.0439529C10.2158 -0.0740019 9.52875 0.047017 8.93073 0.388195C8.33271 0.729374 7.85718 1.2716 7.57809 1.93057C7.29899 2.58954 7.23196 3.32833 7.38741 4.0321C6.16374 3.96673 4.96664 3.62777 3.87384 3.03724C2.78104 2.4467 1.81696 1.6178 1.0442 0.604331C0.770671 1.10512 0.626929 1.67441 0.627698 2.2539C0.627698 3.39126 1.17077 4.39606 1.99642 4.98435C1.50781 4.96795 1.02995 4.8273 0.602679 4.57411V4.6149C0.602826 5.37238 0.848731 6.1065 1.2987 6.69279C1.74867 7.27907 2.37501 7.68144 3.07153 7.83167C2.61795 7.96269 2.14235 7.98201 1.68073 7.88815C1.87711 8.54016 2.25987 9.11038 2.77541 9.51897C3.29095 9.92757 3.91346 10.1541 4.55578 10.1668C3.9174 10.7012 3.18645 11.0963 2.40474 11.3294C1.62303 11.5625 0.805873 11.6291 0 11.5253C1.40676 12.4897 3.04437 13.0017 4.71693 13C10.378 13 13.4738 8.0011 13.4738 3.66579C13.4738 3.5246 13.4701 3.38184 13.4642 3.24222C14.0668 2.778 14.5869 2.20293 15 1.54403L14.9993 1.54324Z"/>
  </symbol>

  <symbol id="pin" viewBox="0 0 16 15">
    <path d="M8.52464 0.0700085C6.73009 -0.176851 4.90683 0.233922 3.39151 1.22648C1.8762 2.21903 0.771177 3.72633 0.280492 5.47006C-0.210193 7.21378 -0.0534017 9.07616 0.721915 10.7133C1.49723 12.3504 2.83871 13.6518 4.49864 14.377C4.45375 13.8009 4.49496 13.2213 4.62089 12.6573C4.75964 12.028 5.59289 8.56001 5.59289 8.56001C5.42697 8.18808 5.34405 7.78448 5.34989 7.37726C5.34989 6.26351 5.99264 5.43251 6.79214 5.43251C6.93577 5.43042 7.07817 5.45928 7.20965 5.51713C7.34113 5.57498 7.45861 5.66047 7.5541 5.76778C7.6496 5.87508 7.72087 6.00169 7.76306 6.139C7.80526 6.27631 7.81739 6.42109 7.79864 6.56351C7.79864 7.23851 7.36514 8.26001 7.13864 9.21851C7.09388 9.39429 7.09104 9.57814 7.13035 9.75522C7.16966 9.93231 7.25002 10.0977 7.36496 10.238C7.4799 10.3783 7.6262 10.4897 7.79207 10.5631C7.95793 10.6366 8.13873 10.67 8.31989 10.6608C9.74339 10.6608 10.6974 8.83751 10.6974 6.68501C10.6974 5.03501 9.60464 3.79901 7.59014 3.79901C7.10817 3.78028 6.62743 3.8597 6.17709 4.03245C5.72676 4.2052 5.31623 4.46767 4.97043 4.80392C4.62463 5.14018 4.35078 5.54321 4.16551 5.98854C3.98023 6.43387 3.8874 6.9122 3.89264 7.39451C3.87117 7.9295 4.04377 8.45423 4.37864 8.87201C4.44122 8.91872 4.48691 8.98451 4.50882 9.05946C4.53074 9.1344 4.52769 9.21444 4.50014 9.28751C4.46564 9.42551 4.37864 9.75476 4.34414 9.87551C4.33697 9.91646 4.32027 9.95515 4.29541 9.98847C4.27054 10.0218 4.2382 10.0488 4.20099 10.0673C4.16378 10.0859 4.12273 10.0954 4.08116 10.0952C4.03959 10.0949 3.99865 10.085 3.96164 10.066C2.92364 9.65051 2.43464 8.50826 2.43464 7.20401C2.43464 5.06876 4.22264 2.51276 7.80014 2.51276C10.6471 2.51276 12.5401 4.59551 12.5401 6.82301C12.5401 9.75476 10.9074 11.959 8.49464 11.959C8.13403 11.9705 7.77634 11.891 7.45464 11.7276C7.13294 11.5643 6.85762 11.3224 6.65414 11.0245C6.65414 11.0245 6.22064 12.7615 6.13514 13.09C5.96061 13.6575 5.70307 14.1961 5.37089 14.6883C6.06314 14.8983 6.78239 15.0033 7.50539 15.0003C8.49058 15.001 9.46624 14.8075 10.3765 14.4307C11.2868 14.0539 12.1138 13.5012 12.8102 12.8043C13.5066 12.1075 14.0587 11.2801 14.4348 10.3695C14.811 9.45899 15.0039 8.48319 15.0024 7.49801C15.0015 5.68676 14.3452 3.937 13.1549 2.57184C11.9645 1.20668 10.3204 0.318307 8.52614 0.0707584L8.52464 0.0700085Z"/>
  </symbol>

  <symbol id="insta" viewBox="0 0 15 15">
    <path d="M7.5 0C9.53775 0 9.792 0.00749996 10.5915 0.045C11.3903 0.0825 11.934 0.20775 12.4125 0.39375C12.9075 0.58425 13.3245 0.84225 13.7415 1.2585C14.1229 1.63342 14.418 2.08694 14.6063 2.5875C14.7915 3.06525 14.9175 3.60975 14.955 4.4085C14.9903 5.208 15 5.46225 15 7.5C15 9.53775 14.9925 9.792 14.955 10.5915C14.9175 11.3903 14.7915 11.934 14.6063 12.4125C14.4185 12.9133 14.1233 13.367 13.7415 13.7415C13.3665 14.1227 12.913 14.4178 12.4125 14.6063C11.9347 14.7915 11.3903 14.9175 10.5915 14.955C9.792 14.9903 9.53775 15 7.5 15C5.46225 15 5.208 14.9925 4.4085 14.955C3.60975 14.9175 3.066 14.7915 2.5875 14.6063C2.08674 14.4184 1.63315 14.1232 1.2585 13.7415C0.877055 13.3666 0.581949 12.9131 0.39375 12.4125C0.20775 11.9347 0.0825 11.3903 0.045 10.5915C0.00974996 9.792 0 9.53775 0 7.5C0 5.46225 0.00749996 5.208 0.045 4.4085C0.0825 3.609 0.20775 3.066 0.39375 2.5875C0.581427 2.08663 0.876603 1.63299 1.2585 1.2585C1.63325 0.876923 2.08682 0.581797 2.5875 0.39375C3.066 0.20775 3.609 0.0825 4.4085 0.045C5.208 0.00974996 5.46225 0 7.5 0ZM7.5 3.75C6.50544 3.75 5.55161 4.14509 4.84835 4.84835C4.14509 5.55161 3.75 6.50544 3.75 7.5C3.75 8.49456 4.14509 9.44839 4.84835 10.1517C5.55161 10.8549 6.50544 11.25 7.5 11.25C8.49456 11.25 9.44839 10.8549 10.1517 10.1517C10.8549 9.44839 11.25 8.49456 11.25 7.5C11.25 6.50544 10.8549 5.55161 10.1517 4.84835C9.44839 4.14509 8.49456 3.75 7.5 3.75ZM12.375 3.5625C12.375 3.31386 12.2762 3.0754 12.1004 2.89959C11.9246 2.72377 11.6861 2.625 11.4375 2.625C11.1889 2.625 10.9504 2.72377 10.7746 2.89959C10.5988 3.0754 10.5 3.31386 10.5 3.5625C10.5 3.81114 10.5988 4.0496 10.7746 4.22541C10.9504 4.40123 11.1889 4.5 11.4375 4.5C11.6861 4.5 11.9246 4.40123 12.1004 4.22541C12.2762 4.0496 12.375 3.81114 12.375 3.5625ZM7.5 5.25C8.09674 5.25 8.66903 5.48705 9.09099 5.90901C9.51295 6.33097 9.75 6.90326 9.75 7.5C9.75 8.09674 9.51295 8.66903 9.09099 9.09099C8.66903 9.51295 8.09674 9.75 7.5 9.75C6.90326 9.75 6.33097 9.51295 5.90901 9.09099C5.48705 8.66903 5.25 8.09674 5.25 7.5C5.25 6.90326 5.48705 6.33097 5.90901 5.90901C6.33097 5.48705 6.90326 5.25 7.5 5.25Z" />
  </symbol>

  <symbol id="close" viewBox="0 0 17 17">
    <path fill-rule="evenodd" clip-rule="evenodd" d="M0.146522 0.853553C-0.04874 0.658291 -0.04874 0.341709 0.146522 0.146447C0.341784 -0.0488155 0.658367 -0.0488156 0.853629 0.146447L8.27821 7.57103L15.7028 0.14645C15.8981 -0.0488124 16.2146 -0.0488125 16.4099 0.14645C16.6052 0.341712 16.6052 0.658294 16.4099 0.853556L8.98532 8.27814L16.41 15.7028C16.6052 15.8981 16.6052 16.2146 16.41 16.4099C16.2147 16.6052 15.8981 16.6052 15.7029 16.4099L8.27821 8.98525L0.853553 16.4099C0.658291 16.6052 0.341709 16.6052 0.146447 16.4099C-0.0488155 16.2146 -0.0488156 15.8981 0.146447 15.7028L7.57111 8.27814L0.146522 0.853553Z" fill="white"/>
  </symbol>
</svg>
